<svg id="Layer_1" xmlns="http://www.w3.org/2000/svg" viewBox="0 0 366.7200012 91.8899994"><style>.st0{fill:#62bb46}.st1{fill:#4e5156}</style><g id="logo_3_"><path class="st0" d="M23.642 58.728h-4.047v.003-.003H15.64c-4.715 0-8.528 3.823-8.528 8.548v7.872c0 4.681 3.767 8.483 8.433 8.536h4.05v-.02.02h3.945c4.708 0 8.522-3.823 8.522-8.549v-7.887c0-4.671-3.769-8.463-8.42-8.52zM65.017 33.651h8.482c4.735.013 8.589-3.842 8.589-8.573v-7.922c0-2.32-.949-4.427-2.452-5.974-1.548-1.497-3.646-2.436-5.974-2.436h-7.931a8.562 8.562 0 0 0-8.567 8.57v8.288c-.224 4.384-3.759 7.934-8.138 8.157-.016.006-.02.012-.025.021-.197-.009-.376-.062-.567-.062h-7.936c-2.318 0-4.42.942-5.964 2.448-1.505 1.553-2.438 3.655-2.438 5.975v.15c0 .031-.008.069-.008.069v7.953c0 2.33.94 4.434 2.446 5.974 1.545 1.497 3.646 2.44 5.964 2.44h7.936c.182 0 .359-.048.545-.063.016.015.027.022.042.04 4.282.226 7.783 3.698 8.143 7.95v8.489c0 4.728 3.848 8.576 8.567 8.576h7.931a8.51 8.51 0 0 0 5.974-2.445 8.541 8.541 0 0 0 2.432-5.968v-7.935a8.565 8.565 0 0 0-8.569-8.573h-8.285c-4.384-.228-7.928-3.757-8.152-8.134-.02-.019-.06-.029-.06-.07v-.284V50.196c0-.016.004-.031.004-.047v-8.282c0-.031.04-.031.056-.063.224-4.29 3.706-7.787 7.955-8.153z"/><g><path class="st1" d="M323.076 24.079a3.447 3.447 0 0 0-3.445 3.454 3.442 3.442 0 0 0 3.445 3.45 3.45 3.45 0 0 0 3.448-3.45 3.454 3.454 0 0 0-3.448-3.454zM121.717 51.527c-1.235-1.93-2.157-3.006-3.136-3.614.594-.42 1.464-1.227 2.96-3.29l6.334-9.96a.662.662 0 0 0-.569-1.022h-5.32c-.481 0-.943.254-1.19.649l-5.202 8.213c-1.244 1.906-1.837 2.57-3.662 2.57h-6.925V26.48a.932.932 0 0 0-.932-.93h-4.35a.928.928 0 0 0-.921.93v35.577c0 .507.419.923.922.923h4.349c.51 0 .932-.416.932-.923V51.01h7.104c1.797 0 2.4.683 3.651 2.643l5.672 8.68c.263.406.717.647 1.195.647h5.32c.519 0 .852-.576.565-1.023l-6.797-10.43zM345.706 33.338c-9.313 0-15.4 7.001-15.5 14.93v.275c.1 7.693 6.097 14.813 15.5 14.813 8.258 0 14.914-6.585 15.014-14.92v-.272c-.1-8.154-6.705-14.826-15.014-14.826zm0 6.006c4.76 0 8.774 3.741 8.774 9.12-.065 5.132-4.015 8.887-8.774 8.887-5.733 0-9.212-4.074-9.262-8.887 0-4.96 3.433-9.12 9.262-9.12zM188.666 37.834c-3.114-3.11-6.821-4.402-11.195-4.402-3.668 0-7.526 1.487-10.429 4.402-2.783 2.78-4.394 6.513-4.394 10.505v13.693c0 .52.426.948.947.948h4.315a.96.96 0 0 0 .96-.948V48.468c0-.814.021-3.902 2.584-6.45 1.6-1.61 3.71-2.574 6.39-2.574 2.644 0 4.771.936 6.4 2.573 2.584 2.574 2.584 5.477 2.584 6.45v13.565c0 .52.43.948.955.948h4.312a.958.958 0 0 0 .955-.948V48.339c0-4.155-1.61-7.725-4.384-10.505zM311.94 56.734a3.372 3.372 0 0 0-3.377 3.375 3.381 3.381 0 0 0 3.377 3.382 3.381 3.381 0 0 0 3.377-3.382 3.372 3.372 0 0 0-3.377-3.375zM216.11 57.185h-4.1a4.597 4.597 0 0 1-4.598-4.606V39.49h8.918c.618 0 1.124-.514 1.124-1.13v-3.508a1.13 1.13 0 0 0-1.124-1.124h-9.004v-7.236a1.13 1.13 0 0 0-1.129-1.133h-4.148c-.624 0-1.128.504-1.128 1.133v7.236h-5.562a1.13 1.13 0 0 0-1.127 1.124v3.507c0 .617.505 1.13 1.127 1.13h5.562v12.28c0 6.25 5.07 11.314 11.3 11.314h3.89c.63 0 1.125-.52 1.125-1.137v-3.641a1.12 1.12 0 0 0-1.125-1.121zM304.065 39.456c.632 0 1.125-.513 1.125-1.127v-3.563c0-.62-.493-1.125-1.125-1.125h-9v-7.13c0-.622-.494-1.12-1.122-1.12h-4.153a1.12 1.12 0 0 0-1.129 1.12v7.13h-10.173c-.48 0-.931.245-1.185.642l-5.423 8.22c-1.245 1.906-1.843 2.57-3.665 2.57h-6.928V26.35a.93.93 0 0 0-.927-.933h-4.346c-.51 0-.93.416-.93.933v35.608c0 .507.42.933.93.933h4.346c.51 0 .927-.426.927-.933V51.01h7.094c1.819 0 2.415.683 3.662 2.643l5.67 8.585c.263.401.719.652 1.196.652h5.326a.669.669 0 0 0 .558-1.034L278 51.526c-1.224-1.928-2.15-3.005-3.134-3.613.593-.42 1.464-1.227 2.952-3.29l3.409-5.167h7.433v12.315c0 6.234 5.07 11.313 11.308 11.313h3.89c.62 0 1.118-.52 1.118-1.137v-3.676c0-.607-.497-1.124-1.119-1.124h-4.108a4.597 4.597 0 0 1-4.593-4.596V39.456h8.908zM326.185 34.628a.924.924 0 0 0-.931-.924h-4.35a.923.923 0 0 0-.928.924v27.398c0 .507.415.93.928.93h4.35a.933.933 0 0 0 .93-.93V34.628zM235.042 33.194a14.909 14.909 0 0 0-10.61 4.396c-2.78 2.774-4.401 6.544-4.401 10.812.052 3.932 1.602 7.643 4.4 10.42a14.889 14.889 0 0 0 10.61 4.397c4.237 0 8.137-2.001 9.798-4.049l.507 2.646c0 .516.42.936.93.936h3.535c.517 0 .932-.42.932-.936V49.92c0-11.547-6.907-16.726-15.701-16.726zm0 24.025c-4.872 0-8.717-3.889-8.768-8.898 0-4.876 3.373-9.078 9.045-9.078 5.69.07 9.125 3.898 9.125 8.824 0 5.554-3.827 9.152-9.402 9.152zM144.327 33.338c-9.313 0-15.399 7.001-15.5 14.93v.275c.09 7.693 6.102 14.813 15.5 14.813 8.259 0 14.919-6.585 15.014-14.92v-.272c-.095-8.154-6.705-14.826-15.014-14.826zm0 6.006c4.761 0 8.775 3.741 8.775 9.12-.065 5.132-4.004 8.887-8.775 8.887-5.737 0-9.207-4.074-9.257-8.887 0-4.96 3.424-9.12 9.257-9.12z"/></g></g></svg>